<?xml version="1.0" standalone="no"?>
<!DOCTYPE svg PUBLIC "-//W3C//DTD SVG 20010904//EN"
 "http://www.w3.org/TR/2001/REC-SVG-20010904/DTD/svg10.dtd">
<svg version="1.0" xmlns="http://www.w3.org/2000/svg"
 width="2048.000000pt" height="2048.000000pt" viewBox="0 0 2048.000000 2048.000000"
 preserveAspectRatio="xMidYMid meet">

<g transform="translate(0.000000,2048.000000) scale(0.100000,-0.100000)"
fill="#000000" stroke="none">
<path d="M9930 19833 c-1292 -46 -2510 -331 -3665 -855 -1320 -600 -2508
-1513 -3438 -2643 -1207 -1465 -1952 -3257 -2136 -5135 -36 -366 -45 -548 -45
-960 0 -412 9 -594 45 -960 319 -3259 2315 -6155 5253 -7622 1065 -532 2161
-850 3336 -967 358 -36 559 -45 970 -45 775 1 1429 75 2170 246 2569 592 4813
2259 6138 4558 744 1291 1158 2673 1263 4210 17 238 17 922 0 1160 -88 1296
-385 2441 -924 3565 -474 987 -1095 1864 -1871 2641 -1613 1612 -3721 2591
-5986 2779 -354 29 -785 40 -1110 28z m-1437 -7910 c3 -3359 -1 -3153 58
-3483 110 -625 379 -996 857 -1181 392 -151 1007 -177 1467 -62 266 66 471
178 641 347 213 213 346 503 414 898 57 338 54 138 57 3486 l3 3072 991 0 990
0 -4 -3072 c-3 -2244 -7 -3108 -15 -3203 -89 -987 -276 -1565 -670 -2075 -90
-116 -296 -325 -415 -421 -545 -440 -1255 -679 -2200 -740 -237 -15 -859 -6
-1062 16 -298 32 -498 66 -738 126 -580 145 -1051 393 -1419 747 -595 574
-870 1329 -928 2552 -6 123 -10 1385 -10 3138 l0 2932 990 0 990 0 3 -3077z"/>
</g>
</svg>
